<?xml version="1.0" encoding="utf-8"?>
<!-- Generator: Adobe Illustrator 15.0.0, SVG Export Plug-In . SVG Version: 6.00 Build 0)  -->
<!DOCTYPE svg PUBLIC "-//W3C//DTD SVG 1.1//EN" "http://www.w3.org/Graphics/SVG/1.1/DTD/svg11.dtd">
<svg version="1.1"  xmlns="http://www.w3.org/2000/svg" xmlns:xlink="http://www.w3.org/1999/xlink" x="0px" y="0px"
	 width="48px" height="48px" viewBox="0 0 48 48" enable-background="new 0 0 48 48" xml:space="preserve">
<path fill="#CFD8DC" d="M40,15H8c-2.209,0-4,1.791-4,4v1v18c0,2.209,1.791,4,4,4h32c2.209,0,4-1.791,4-4V20v-1
	C44,16.791,42.209,15,40,15z"/>
<g>
	<rect x="21" y="6" fill="#2196F3" width="6" height="8"/>
	<polygon fill="#2196F3" points="24,22 16,13 32,13 	"/>
</g>
<path fill="#B0BEC5" d="M44,19c0-0.465-0.095-0.904-0.24-1.32L24,32L4.241,17.68C4.095,18.096,4,18.535,4,19v0.975l18.826,13.645
	L24,34.47l1.174-0.851L44,19.975V19z"/>
<g>
	<path fill="#F44336" d="M44,19v1v18c0,2.209-1.791,4-4,4h-1V17h1v-2C42.209,15,44,16.791,44,19z M8,17v-2c-2.209,0-4,1.791-4,4v1
		v18c0,2.209,1.791,4,4,4h1V17H8z"/>
	<path fill="#F44336" d="M4.241,17.68L24,32l19.76-14.32C43.212,16.123,41.744,15,40,15h-0.157L24,27L8.157,15H8
		C6.256,15,4.788,16.123,4.241,17.68z"/>
</g>
<g>
	<path fill="#D32F2F" d="M44,19.975V19c0-0.465-0.095-0.904-0.24-1.32L39,21.129v2.47L44,19.975z"/>
	<path fill="#D32F2F" d="M9,23.599v-2.47L4.241,17.68C4.095,18.096,4,18.535,4,19v0.975L9,23.599z"/>
</g>
</svg>
