<?xml version="1.0" encoding="UTF-8" standalone="no"?>
<!DOCTYPE svg PUBLIC "-//W3C//DTD SVG 1.1//EN" "http://www.w3.org/Graphics/SVG/1.1/DTD/svg11.dtd">
<svg width="100%" height="100%" viewBox="0 0 2500 2500" version="1.1" xmlns="http://www.w3.org/2000/svg" xmlns:xlink="http://www.w3.org/1999/xlink" xml:space="preserve" xmlns:serif="http://www.serif.com/" style="fill-rule:evenodd;clip-rule:evenodd;stroke-linejoin:round;stroke-miterlimit:2;">
    <g transform="matrix(0.927359,0,0,0.934216,-50.7155,-4.23628)">
        <path d="M2169.61,635.735C1984.35,395.843 1697.82,255.092 1394.73,255.092C857.639,255.092 415.685,697.047 415.685,1234.13C415.685,1771.22 857.639,2213.17 1394.73,2213.17C1611.34,2213.17 1821.94,2141.28 1993.35,2008.84C2421.07,1678.29 2500,1063.61 2169.57,635.735L2169.61,635.735Z" style="fill:rgb(255,108,55);fill-rule:nonzero;"/>
    </g>
    <g transform="matrix(0.927359,0,0,0.934216,-50.7155,-4.23628)">
        <path d="M1724.94,878.904L1312.12,1295L1195.46,1175.06C1601.76,768.762 1642.55,805.476 1724.97,878.904L1724.94,878.904Z" style="fill:white;fill-rule:nonzero;"/>
    </g>
    <g transform="matrix(0.927359,0,0,0.934216,-50.7155,-4.23628)">
        <path d="M1312.12,1306.38C1308.46,1306.29 1304.97,1304.84 1302.33,1302.31L1184.84,1184.82C1179.38,1179.17 1179.38,1170.07 1184.84,1164.42C1585.42,763.836 1640.1,782.591 1734.73,868.257C1737.94,870.825 1739.75,874.764 1739.62,878.873C1740.24,882.85 1738.7,886.92 1735.55,889.49L1322.74,1302.34C1319.84,1304.99 1316.05,1306.45 1312.12,1306.41L1312.12,1306.38ZM1215.84,1175.03L1312.12,1271.32L1703.74,879.699C1675.88,844.787 1625.66,836.299 1587.87,860.118C1516.89,891.937 1402.68,989.015 1215.84,1175.03Z" style="fill:rgb(255,108,55);fill-rule:nonzero;"/>
    </g>
    <g transform="matrix(0.927359,0,0,0.934216,-50.7155,-4.23628)">
        <path d="M1430.43,1410.03L1317.84,1295L1730.66,887.042C1841.63,995.562 1676.81,1176.68 1430.43,1410L1430.43,1410.03Z" style="fill:white;fill-rule:nonzero;"/>
    </g>
    <g transform="matrix(0.927359,0,0,0.934216,-50.7155,-4.23628)">
        <path d="M1430.43,1424.72C1426.82,1424.43 1423.39,1423.01 1420.64,1420.65L1305.6,1308.06C1303.88,1303.88 1303.88,1299.18 1305.6,1295C1304.38,1291.56 1304.38,1287.81 1305.6,1284.38L1718.42,871.561C1724.35,865.993 1733.7,865.993 1739.62,871.561C1766.66,896.445 1781.56,931.912 1780.41,968.639C1780.41,1078.78 1654.75,1217.47 1441.02,1419.82C1438.16,1422.65 1434.4,1424.38 1430.4,1424.72L1430.43,1424.72ZM1339.04,1295L1431.23,1387.15C1594.39,1232.95 1750.24,1073.86 1751.04,966.161C1751.92,943.336 1744.37,920.966 1729.83,903.349L1339.04,1295Z" style="fill:rgb(255,108,55);fill-rule:nonzero;"/>
    </g>
    <g transform="matrix(0.927359,0,0,0.934216,-50.7155,-4.23628)">
        <path d="M1198.7,1177.51L1280.3,1259.11C1281.35,1260.04 1281.96,1261.38 1281.96,1262.78C1281.96,1264.18 1281.35,1265.52 1280.3,1266.45L1108.14,1303.16C1107.01,1303.41 1105.86,1303.53 1104.7,1303.53C1095.76,1303.53 1088.39,1296.17 1088.39,1287.22C1088.39,1282.76 1090.23,1278.49 1093.46,1275.41L1193.81,1175.89C1193.81,1175.89 1197.08,1175.89 1198.7,1177.51Z" style="fill:white;fill-rule:nonzero;"/>
    </g>
    <g transform="matrix(0.927359,0,0,0.934216,-50.7155,-4.23628)">
        <path d="M1104.07,1319.47C1093.03,1319.33 1082.81,1313.45 1077.15,1303.96C1070.72,1291.84 1073.06,1276.83 1082.87,1267.25L1182.4,1166.89C1189.79,1160.29 1201.1,1160.29 1208.49,1166.89L1290.09,1248.49C1294.92,1253.08 1296.82,1260.03 1294.99,1266.45C1293.15,1272.88 1287.77,1277.99 1281.13,1279.51L1108.97,1316.23L1104.07,1319.47ZM1195.46,1195.47L1103.28,1287.65L1255.86,1255.01L1195.46,1195.47Z" style="fill:rgb(255,108,55);fill-rule:nonzero;"/>
    </g>
    <g transform="matrix(0.927359,0,0,0.934216,-50.7155,-4.23628)">
        <path d="M1944.43,649.625C1885.38,592.657 1792.61,590.271 1730.69,644.026C1668.77,697.781 1658.18,790.056 1706.4,856.447C1754.61,922.838 1845.51,941.44 1915.88,899.28L1804.91,788.312L1944.43,649.625Z" style="fill:white;fill-rule:nonzero;"/>
    </g>
    <g transform="matrix(0.927359,0,0,0.934216,-50.7155,-4.23628)">
        <path d="M1834.28,936.789C1765.07,935.902 1702.77,893.52 1676.54,829.462C1650.32,765.462 1664.8,691.637 1713.25,642.282C1780.77,576.003 1890.49,576.003 1958.01,642.282C1961.13,644.913 1962.9,648.799 1962.9,652.899C1962.89,656.978 1961.1,660.855 1958.01,663.515L1825.84,788.343L1926.19,887.073C1929.49,890.222 1931.02,894.813 1930.26,899.311C1929.77,903.638 1927.38,907.532 1923.74,909.927C1896.79,926.777 1865.79,936.077 1834.01,936.851L1834.28,936.789ZM1834.28,620.223C1776.15,620.529 1724.14,655.499 1702.33,708.949C1680.51,762.398 1692.38,823.924 1733.14,864.983C1774.53,906.621 1837.59,918.651 1891.4,895.18L1795.12,798.898C1792.02,796.42 1790.22,792.662 1790.22,788.694C1790.22,784.727 1792.02,780.968 1795.12,778.491L1922.4,650.39C1897.1,631.003 1866.15,620.397 1834.28,620.193L1834.28,620.223Z" style="fill:rgb(255,108,55);fill-rule:nonzero;"/>
    </g>
    <g transform="matrix(0.927359,0,0,0.934216,-50.7155,-4.23628)">
        <path d="M1946.87,652.072L1807.36,790.76L1918.33,901.728C1929.5,895.316 1939.89,887.648 1949.32,878.873C2009.41,815.364 2008.32,714.27 1946.87,652.072Z" style="fill:white;fill-rule:nonzero;"/>
    </g>
    <g transform="matrix(0.927359,0,0,0.934216,-50.7155,-4.23628)">
        <path d="M1915.85,913.966C1912.14,914.166 1908.53,912.668 1906.06,909.896L1795.09,798.928C1791.99,796.451 1790.19,792.692 1790.19,788.725C1790.19,784.758 1791.99,780.999 1795.09,778.522L1933.78,642.282C1936.5,638.184 1941.1,635.714 1946.02,635.714C1950.93,635.714 1955.54,638.184 1958.26,642.282C1991.13,674.495 2009.68,718.634 2009.68,764.662C2009.68,810.69 1991.13,854.829 1958.26,887.042C1948.65,897.229 1937.66,906.014 1925.61,913.139C1922.58,914.668 1919.07,914.965 1915.82,913.966L1915.85,913.966ZM1826.12,788.343L1918.3,880.525C1924.64,876.081 1930.64,871.172 1936.26,865.84C1963.35,838.825 1978.62,802.123 1978.69,763.867C1978.75,729.626 1966.27,696.523 1943.6,670.858L1826.12,788.343Z" style="fill:rgb(255,108,55);fill-rule:nonzero;"/>
    </g>
    <g transform="matrix(0.927359,0,0,0.934216,-50.7155,-4.23628)">
        <path d="M1742.07,896.037C1719.27,874.621 1683.28,874.621 1660.47,896.037L1290.92,1264.77L1352.11,1326.78L1742.9,984.12C1754.8,972.716 1761.53,956.932 1761.53,940.452C1761.53,923.578 1754.47,907.451 1742.07,896.006L1742.07,896.037Z" style="fill:white;fill-rule:nonzero;"/>
    </g>
    <g transform="matrix(0.927359,0,0,0.934216,-50.7155,-4.23628)">
        <path d="M1348.83,1341.5C1345.18,1341.41 1341.68,1339.96 1339.04,1337.43L1277.03,1275.41C1271.56,1269.76 1271.56,1260.66 1277.03,1255.01L1646.61,887.042C1660.69,872.987 1679.78,865.083 1699.67,865.083C1740.86,865.083 1774.75,898.976 1774.75,940.163C1774.75,940.946 1774.74,941.728 1774.72,942.511C1773.86,963.122 1764.73,982.543 1749.41,996.358L1358.62,1339.02C1355.78,1341.03 1352.29,1341.91 1348.83,1341.47L1348.83,1341.5ZM1305.6,1264.77L1346.39,1306.38L1729.83,972.677C1739.32,964.417 1744.98,952.607 1745.34,940.032C1745.71,927.458 1740.76,915.159 1731.49,906.592C1713.78,888.961 1684.73,888.961 1667.02,906.592L1305.6,1264.77Z" style="fill:rgb(255,108,55);fill-rule:nonzero;"/>
    </g>
    <g transform="matrix(0.927359,0,0,0.934216,-50.7155,-4.23628)">
        <path d="M1004.55,1684.96C1002.41,1687.86 1002.41,1691.85 1004.55,1694.75L1020.86,1765.73C1022.19,1774.26 1018.15,1782.78 1010.7,1787.15C1003.26,1791.5 993.801,1790.54 987.384,1784.79L875.621,1677.1L1224.01,1325.96L1344.76,1325.96L1426.36,1407.55C1299.08,1518.84 1157.15,1612.18 1004.55,1684.96Z" style="fill:white;fill-rule:nonzero;"/>
    </g>
    <g transform="matrix(0.927359,0,0,0.934216,-50.7155,-4.23628)">
        <path d="M997.205,1804.89C987.965,1804.71 978.848,1800.91 972.729,1794.28L865.861,1687.41C862.762,1684.93 860.955,1681.17 860.955,1677.2C860.955,1673.24 862.762,1669.48 865.861,1667L1216.66,1315.37C1218.63,1313.28 1221.19,1311.86 1224.01,1311.3L1345.56,1311.3C1348.73,1310.18 1352.18,1310.18 1355.35,1311.3L1436.95,1392.9C1440.09,1395.8 1441.62,1400.07 1441.02,1404.31C1441.13,1408.42 1439.32,1412.35 1436.12,1414.93L1429.6,1420.65C1301.81,1527.19 1161.2,1617.36 1011.07,1689.06L1026.58,1755.14C1027.2,1757.78 1027.51,1760.49 1027.51,1763.2C1027.51,1782.2 1012.13,1797.94 993.136,1798.38L997.205,1804.89ZM897.68,1676.79L993.931,1773.87C995.779,1775.52 998.601,1775.52 1000.45,1773.87C1001.68,1772.16 1001.68,1769.85 1000.45,1768.15L984.141,1697.17C981.501,1686.7 986.647,1675.73 996.379,1671.07C1142.48,1600.33 1279.46,1512.11 1404.3,1408.35L1337.39,1341.44L1228.08,1341.44L897.68,1676.79Z" style="fill:rgb(255,108,55);fill-rule:nonzero;"/>
    </g>
    <g transform="matrix(0.927359,0,0,0.934216,-50.7155,-4.23628)">
        <path d="M791.607,1760.84L873.204,1679.24L998.857,1804.89L798.98,1791.03C790.524,1790.37 783.919,1783.23 783.919,1774.74C783.919,1769.1 786.843,1763.84 791.637,1760.87L791.607,1760.84Z" style="fill:white;fill-rule:nonzero;"/>
    </g>
    <g transform="matrix(0.927359,0,0,0.934216,-50.7155,-4.23628)">
        <path d="M1001.27,1817.13L802.193,1803.27C790.383,1802.17 780.226,1794.09 776.065,1783.29C771.904,1772.49 774.443,1759.67 782.612,1751.04L864.209,1669.45C869.865,1663.98 878.959,1663.98 884.616,1669.45L1009.44,1794.28C1012.98,1799.12 1012.98,1805.74 1009.44,1810.58C1007.56,1813.63 1004.67,1815.94 1001.27,1817.1L1001.27,1817.13ZM802.193,1771.45L965.356,1782.07L875.621,1698.02L802.193,1771.45Z" style="fill:rgb(255,108,55);fill-rule:nonzero;"/>
    </g>
    <g transform="matrix(0.927359,0,0,0.934216,-50.7155,-4.23628)">
        <path d="M1356.18,1335.81L1191.36,1361.11L1286.82,1266.48L1356.18,1335.81Z" style="fill:white;fill-rule:nonzero;"/>
    </g>
    <g transform="matrix(0.927359,0,0,0.934216,-50.7155,-4.23628)">
        <path d="M1191.36,1376.56C1185.77,1376.71 1180.61,1373.48 1178.3,1368.39C1174.74,1363.56 1174.74,1356.92 1178.3,1352.09L1272.93,1256.63C1278.85,1251.06 1288.2,1251.06 1294.13,1256.63L1363.52,1325.96C1366.34,1330.44 1366.34,1336.16 1363.52,1340.64C1362.13,1346.11 1357.65,1350.27 1352.11,1351.26L1188.94,1376.56L1191.36,1376.56ZM1286.82,1287.62L1233.8,1340.64L1325.18,1326.78L1286.82,1287.62Z" style="fill:rgb(255,108,55);fill-rule:nonzero;"/>
    </g>
    <g transform="matrix(0.927359,0,0,0.934216,-50.7155,-4.23628)">
        <path d="M1356.18,1335.75L1241.14,1350.43C1240.07,1350.68 1238.98,1350.8 1237.89,1350.8C1229.83,1350.8 1223.2,1344.17 1223.2,1336.11C1223.2,1332.33 1224.66,1328.69 1227.28,1325.96L1286.85,1266.39L1356.18,1335.75Z" style="fill:white;fill-rule:nonzero;"/>
    </g>
    <g transform="matrix(0.927359,0,0,0.934216,-50.7155,-4.23628)">
        <path d="M1237.87,1365.98C1227.02,1365.87 1217.04,1359.94 1211.77,1350.46C1205.38,1339.02 1207.39,1324.63 1216.66,1315.37L1276.23,1255.8C1282.16,1250.24 1291.51,1250.24 1297.43,1255.8L1366.79,1325.16C1369.72,1327.93 1371.38,1331.79 1371.38,1335.82C1371.38,1343.45 1365.43,1349.87 1357.83,1350.46L1243.62,1365.15L1237.87,1365.98ZM1237.87,1335.78L1324.36,1325.16L1286.02,1286.83L1237.07,1335.78L1237.87,1335.78ZM1947.67,745.907C1944.5,740.604 1937.79,738.487 1932.16,741.012C1929.43,742.394 1927.38,744.824 1926.47,747.743C1925.56,750.659 1925.85,753.819 1927.26,756.524C1932.98,768.548 1931.39,782.774 1923.19,793.238C1921.13,795.275 1920.02,798.085 1920.13,800.978C1920.16,803.847 1921.25,806.605 1923.19,808.719C1925.29,809.545 1927.62,809.545 1929.71,808.719C1933.58,809.691 1937.68,808.426 1940.33,805.445C1954.01,788.686 1956.88,765.458 1947.67,745.877L1947.67,745.907Z" style="fill:rgb(255,108,55);fill-rule:nonzero;"/>
    </g>
</svg>
